<svg xmlns="http://www.w3.org/2000/svg" width="188" height="34" viewBox="0 0 188 34" fill="none"><rect width="188" height="27" rx="13.5" fill="#68B426"></rect><path d="M25.8615 16.735V14.425L30.1515 7.75L31.7565 8.845L27.9765 14.755L28.1565 15.055H34.8765V16.735H25.8615ZM31.5915 19V11.155H33.5565V19H31.5915ZM40.1431 19.3C39.3031 19.3 38.5631 19.165 37.9231 18.895C37.2831 18.625 36.7831 18.24 36.4231 17.74C36.0631 17.24 35.8831 16.645 35.8831 15.955C35.8831 15.495 35.9631 15.09 36.1231 14.74C36.2831 14.38 36.5031 14.075 36.7831 13.825C37.0631 13.565 37.3931 13.37 37.7731 13.24V13.06C37.4831 12.93 37.2181 12.76 36.9781 12.55C36.7481 12.34 36.5631 12.085 36.4231 11.785C36.2931 11.485 36.2281 11.14 36.2281 10.75C36.2281 10.09 36.3981 9.54 36.7381 9.1C37.0881 8.65 37.5581 8.315 38.1481 8.095C38.7481 7.865 39.4131 7.75 40.1431 7.75C40.8831 7.75 41.5481 7.865 42.1381 8.095C42.7381 8.315 43.2081 8.65 43.5481 9.1C43.8981 9.54 44.0731 10.09 44.0731 10.75C44.0731 11.14 44.0031 11.485 43.8631 11.785C43.7331 12.085 43.5531 12.34 43.3231 12.55C43.0931 12.76 42.8281 12.93 42.5281 13.06V13.24C42.9081 13.37 43.2381 13.565 43.5181 13.825C43.8081 14.085 44.0281 14.395 44.1781 14.755C44.3381 15.105 44.4181 15.505 44.4181 15.955C44.4181 16.645 44.2381 17.24 43.8781 17.74C43.5281 18.24 43.0331 18.625 42.3931 18.895C41.7531 19.165 41.0031 19.3 40.1431 19.3ZM40.1431 17.545C40.6031 17.545 40.9981 17.475 41.3281 17.335C41.6581 17.195 41.9131 16.99 42.0931 16.72C42.2731 16.45 42.3631 16.125 42.3631 15.745C42.3631 15.365 42.2731 15.045 42.0931 14.785C41.9231 14.515 41.6681 14.31 41.3281 14.17C40.9981 14.03 40.6031 13.96 40.1431 13.96C39.6931 13.96 39.3031 14.03 38.9731 14.17C38.6431 14.31 38.3881 14.515 38.2081 14.785C38.0281 15.045 37.9381 15.365 37.9381 15.745C37.9381 16.125 38.0281 16.45 38.2081 16.72C38.3881 16.99 38.6431 17.195 38.9731 17.335C39.3031 17.475 39.6931 17.545 40.1431 17.545ZM40.1431 12.37C40.7231 12.37 41.1781 12.25 41.5081 12.01C41.8481 11.76 42.0181 11.4 42.0181 10.93C42.0181 10.44 41.8481 10.08 41.5081 9.85C41.1681 9.62 40.7131 9.505 40.1431 9.505C39.5731 9.505 39.1181 9.625 38.7781 9.865C38.4481 10.095 38.2831 10.45 38.2831 10.93C38.2831 11.4 38.4531 11.76 38.7931 12.01C39.1331 12.25 39.5831 12.37 40.1431 12.37ZM52.0538 19L56.0888 8.05H57.8138L53.7788 19H52.0538ZM51.2738 14.02C50.6938 14.02 50.2138 13.89 49.8338 13.63C49.4538 13.36 49.1688 13.005 48.9788 12.565C48.7988 12.125 48.7088 11.645 48.7088 11.125V10.735C48.7088 10.165 48.8038 9.665 48.9938 9.235C49.1838 8.795 49.4688 8.455 49.8488 8.215C50.2388 7.965 50.7138 7.84 51.2738 7.84C51.8538 7.84 52.3338 7.965 52.7138 8.215C53.0938 8.455 53.3788 8.795 53.5688 9.235C53.7588 9.665 53.8538 10.165 53.8538 10.735V11.125C53.8538 11.645 53.7588 12.125 53.5688 12.565C53.3888 13.005 53.1088 13.36 52.7288 13.63C52.3588 13.89 51.8738 14.02 51.2738 14.02ZM51.2738 12.625C51.6338 12.625 51.8988 12.495 52.0688 12.235C52.2488 11.965 52.3388 11.535 52.3388 10.945C52.3388 10.305 52.2488 9.86 52.0688 9.61C51.8888 9.36 51.6238 9.235 51.2738 9.235C50.9238 9.235 50.6588 9.36 50.4788 9.61C50.3088 9.86 50.2238 10.3 50.2238 10.93C50.2238 11.52 50.3088 11.95 50.4788 12.22C50.6588 12.49 50.9238 12.625 51.2738 12.625ZM58.5188 19.225C57.9388 19.225 57.4588 19.095 57.0788 18.835C56.6988 18.565 56.4138 18.21 56.2238 17.77C56.0438 17.33 55.9538 16.85 55.9538 16.33V15.94C55.9538 15.37 56.0488 14.87 56.2388 14.44C56.4288 14 56.7138 13.66 57.0938 13.42C57.4838 13.17 57.9588 13.045 58.5188 13.045C59.0988 13.045 59.5788 13.17 59.9588 13.42C60.3388 13.66 60.6238 14 60.8138 14.44C61.0038 14.87 61.0988 15.37 61.0988 15.94V16.33C61.0988 16.85 61.0038 17.33 60.8138 17.77C60.6338 18.21 60.3538 18.565 59.9738 18.835C59.6038 19.095 59.1188 19.225 58.5188 19.225ZM58.5188 17.83C58.8788 17.83 59.1438 17.7 59.3138 17.44C59.4938 17.17 59.5838 16.74 59.5838 16.15C59.5838 15.51 59.4938 15.065 59.3138 14.815C59.1338 14.565 58.8688 14.44 58.5188 14.44C58.1688 14.44 57.9038 14.565 57.7238 14.815C57.5538 15.065 57.4688 15.505 57.4688 16.135C57.4688 16.725 57.5538 17.155 57.7238 17.425C57.9038 17.695 58.1688 17.83 58.5188 17.83ZM69.2704 19.27C68.7004 19.27 68.1754 19.165 67.6954 18.955C67.2154 18.745 66.8004 18.45 66.4504 18.07C66.1004 17.69 65.8304 17.25 65.6404 16.75C65.4504 16.24 65.3554 15.69 65.3554 15.1V14.785C65.3554 14.205 65.4454 13.66 65.6254 13.15C65.8154 12.64 66.0754 12.195 66.4054 11.815C66.7454 11.435 67.1504 11.14 67.6204 10.93C68.1004 10.71 68.6304 10.6 69.2104 10.6C69.8504 10.6 70.4104 10.74 70.8904 11.02C71.3804 11.29 71.7704 11.7 72.0604 12.25C72.3504 12.8 72.5104 13.49 72.5404 14.32L71.9254 13.6V8.05H74.0104V19H72.3604V15.535H72.7204C72.6904 16.365 72.5204 17.06 72.2104 17.62C71.9004 18.17 71.4904 18.585 70.9804 18.865C70.4804 19.135 69.9104 19.27 69.2704 19.27ZM69.7354 17.515C70.1454 17.515 70.5204 17.425 70.8604 17.245C71.2004 17.055 71.4704 16.785 71.6704 16.435C71.8804 16.075 71.9854 15.655 71.9854 15.175V14.575C71.9854 14.095 71.8804 13.695 71.6704 13.375C71.4604 13.045 71.1854 12.795 70.8454 12.625C70.5054 12.445 70.1354 12.355 69.7354 12.355C69.2854 12.355 68.8854 12.465 68.5354 12.685C68.1954 12.895 67.9254 13.195 67.7254 13.585C67.5354 13.975 67.4404 14.43 67.4404 14.95C67.4404 15.47 67.5404 15.925 67.7404 16.315C67.9404 16.695 68.2104 16.99 68.5504 17.2C68.9004 17.41 69.2954 17.515 69.7354 17.515ZM80.0287 19.285C79.3287 19.285 78.7137 19.165 78.1837 18.925C77.6637 18.685 77.2287 18.365 76.8787 17.965C76.5387 17.555 76.2787 17.1 76.0987 16.6C75.9287 16.1 75.8437 15.59 75.8437 15.07V14.785C75.8437 14.245 75.9287 13.725 76.0987 13.225C76.2787 12.715 76.5387 12.265 76.8787 11.875C77.2287 11.475 77.6587 11.16 78.1687 10.93C78.6787 10.69 79.2687 10.57 79.9387 10.57C80.8187 10.57 81.5537 10.765 82.1437 11.155C82.7437 11.535 83.1937 12.04 83.4937 12.67C83.7937 13.29 83.9437 13.96 83.9437 14.68V15.43H76.7287V14.155H82.6387L81.9937 14.785C81.9937 14.265 81.9187 13.82 81.7687 13.45C81.6187 13.08 81.3887 12.795 81.0787 12.595C80.7787 12.395 80.3987 12.295 79.9387 12.295C79.4787 12.295 79.0887 12.4 78.7687 12.61C78.4487 12.82 78.2037 13.125 78.0337 13.525C77.8737 13.915 77.7937 14.385 77.7937 14.935C77.7937 15.445 77.8737 15.9 78.0337 16.3C78.1937 16.69 78.4387 17 78.7687 17.23C79.0987 17.45 79.5187 17.56 80.0287 17.56C80.5387 17.56 80.9537 17.46 81.2737 17.26C81.5937 17.05 81.7987 16.795 81.8887 16.495H83.8087C83.6887 17.055 83.4587 17.545 83.1187 17.965C82.7787 18.385 82.3437 18.71 81.8137 18.94C81.2937 19.17 80.6987 19.285 80.0287 19.285ZM90.9178 19.06V17.08H93.1828C93.7528 17.08 94.2578 16.995 94.6978 16.825C95.1478 16.645 95.5278 16.395 95.8378 16.075C96.1478 15.755 96.3828 15.38 96.5428 14.95C96.7128 14.51 96.7978 14.025 96.7978 13.495C96.7978 12.945 96.7128 12.455 96.5428 12.025C96.3828 11.585 96.1478 11.21 95.8378 10.9C95.5278 10.59 95.1478 10.355 94.6978 10.195C94.2578 10.035 93.7528 9.955 93.1828 9.955H90.9178V7.975H93.0478C94.0378 7.975 94.9028 8.12 95.6428 8.41C96.3828 8.7 96.9978 9.1 97.4878 9.61C97.9778 10.11 98.3428 10.685 98.5828 11.335C98.8328 11.975 98.9578 12.64 98.9578 13.33V13.66C98.9578 14.32 98.8328 14.97 98.5828 15.61C98.3428 16.25 97.9778 16.83 97.4878 17.35C96.9978 17.87 96.3828 18.285 95.6428 18.595C94.9028 18.905 94.0378 19.06 93.0478 19.06H90.9178ZM89.0878 19.06V7.975H91.2178V19.06H89.0878ZM104.345 19.285C103.645 19.285 103.03 19.165 102.5 18.925C101.98 18.685 101.545 18.365 101.195 17.965C100.855 17.555 100.595 17.1 100.415 16.6C100.245 16.1 100.16 15.59 100.16 15.07V14.785C100.16 14.245 100.245 13.725 100.415 13.225C100.595 12.715 100.855 12.265 101.195 11.875C101.545 11.475 101.975 11.16 102.485 10.93C102.995 10.69 103.585 10.57 104.255 10.57C105.135 10.57 105.87 10.765 106.46 11.155C107.06 11.535 107.51 12.04 107.81 12.67C108.11 13.29 108.26 13.96 108.26 14.68V15.43H101.045V14.155H106.955L106.31 14.785C106.31 14.265 106.235 13.82 106.085 13.45C105.935 13.08 105.705 12.795 105.395 12.595C105.095 12.395 104.715 12.295 104.255 12.295C103.795 12.295 103.405 12.4 103.085 12.61C102.765 12.82 102.52 13.125 102.35 13.525C102.19 13.915 102.11 14.385 102.11 14.935C102.11 15.445 102.19 15.9 102.35 16.3C102.51 16.69 102.755 17 103.085 17.23C103.415 17.45 103.835 17.56 104.345 17.56C104.855 17.56 105.27 17.46 105.59 17.26C105.91 17.05 106.115 16.795 106.205 16.495H108.125C108.005 17.055 107.775 17.545 107.435 17.965C107.095 18.385 106.66 18.71 106.13 18.94C105.61 19.17 105.015 19.285 104.345 19.285ZM112.957 19.255C111.837 19.255 110.957 19.02 110.317 18.55C109.687 18.07 109.357 17.41 109.327 16.57H111.202C111.232 16.85 111.387 17.105 111.667 17.335C111.947 17.565 112.387 17.68 112.987 17.68C113.487 17.68 113.882 17.59 114.172 17.41C114.472 17.23 114.622 16.985 114.622 16.675C114.622 16.405 114.507 16.19 114.277 16.03C114.057 15.87 113.677 15.765 113.137 15.715L112.417 15.64C111.507 15.54 110.807 15.28 110.317 14.86C109.827 14.44 109.582 13.88 109.582 13.18C109.582 12.62 109.722 12.15 110.002 11.77C110.282 11.39 110.667 11.105 111.157 10.915C111.657 10.715 112.227 10.615 112.867 10.615C113.867 10.615 114.677 10.835 115.297 11.275C115.917 11.715 116.242 12.36 116.272 13.21H114.397C114.377 12.93 114.237 12.69 113.977 12.49C113.717 12.29 113.342 12.19 112.852 12.19C112.412 12.19 112.072 12.275 111.832 12.445C111.592 12.615 111.472 12.835 111.472 13.105C111.472 13.365 111.567 13.565 111.757 13.705C111.957 13.845 112.277 13.94 112.717 13.99L113.437 14.065C114.397 14.165 115.147 14.43 115.687 14.86C116.237 15.29 116.512 15.87 116.512 16.6C116.512 17.14 116.362 17.61 116.062 18.01C115.772 18.4 115.362 18.705 114.832 18.925C114.302 19.145 113.677 19.255 112.957 19.255ZM121.849 19.285C121.139 19.285 120.524 19.165 120.004 18.925C119.494 18.685 119.064 18.365 118.714 17.965C118.374 17.565 118.119 17.115 117.949 16.615C117.779 16.115 117.694 15.605 117.694 15.085V14.8C117.694 14.25 117.779 13.725 117.949 13.225C118.129 12.715 118.394 12.265 118.744 11.875C119.094 11.475 119.524 11.16 120.034 10.93C120.554 10.69 121.154 10.57 121.834 10.57C122.544 10.57 123.179 10.71 123.739 10.99C124.299 11.26 124.744 11.64 125.074 12.13C125.414 12.62 125.604 13.19 125.644 13.84H123.619C123.569 13.42 123.389 13.07 123.079 12.79C122.779 12.51 122.364 12.37 121.834 12.37C121.374 12.37 120.989 12.48 120.679 12.7C120.379 12.92 120.154 13.225 120.004 13.615C119.854 13.995 119.779 14.435 119.779 14.935C119.779 15.415 119.849 15.85 119.989 16.24C120.139 16.63 120.364 16.935 120.664 17.155C120.974 17.375 121.369 17.485 121.849 17.485C122.209 17.485 122.519 17.42 122.779 17.29C123.039 17.16 123.244 16.98 123.394 16.75C123.554 16.52 123.654 16.26 123.694 15.97H125.719C125.679 16.63 125.484 17.21 125.134 17.71C124.794 18.2 124.339 18.585 123.769 18.865C123.209 19.145 122.569 19.285 121.849 19.285ZM131.305 19.285C130.585 19.285 129.95 19.17 129.4 18.94C128.85 18.71 128.385 18.4 128.005 18.01C127.625 17.61 127.335 17.16 127.135 16.66C126.945 16.16 126.85 15.64 126.85 15.1V14.785C126.85 14.225 126.95 13.695 127.15 13.195C127.36 12.685 127.655 12.235 128.035 11.845C128.425 11.445 128.895 11.135 129.445 10.915C129.995 10.685 130.615 10.57 131.305 10.57C131.995 10.57 132.615 10.685 133.165 10.915C133.715 11.135 134.18 11.445 134.56 11.845C134.95 12.235 135.245 12.685 135.445 13.195C135.645 13.695 135.745 14.225 135.745 14.785V15.1C135.745 15.64 135.645 16.16 135.445 16.66C135.255 17.16 134.97 17.61 134.59 18.01C134.21 18.4 133.745 18.71 133.195 18.94C132.645 19.17 132.015 19.285 131.305 19.285ZM131.305 17.5C131.815 17.5 132.245 17.39 132.595 17.17C132.945 16.94 133.21 16.635 133.39 16.255C133.57 15.865 133.66 15.425 133.66 14.935C133.66 14.435 133.565 13.995 133.375 13.615C133.195 13.225 132.925 12.92 132.565 12.7C132.215 12.47 131.795 12.355 131.305 12.355C130.815 12.355 130.39 12.47 130.03 12.7C129.68 12.92 129.41 13.225 129.22 13.615C129.03 13.995 128.935 14.435 128.935 14.935C128.935 15.425 129.025 15.865 129.205 16.255C129.395 16.635 129.665 16.94 130.015 17.17C130.365 17.39 130.795 17.5 131.305 17.5ZM137.57 19V10.855H139.22V14.35H139.07C139.07 13.52 139.18 12.83 139.4 12.28C139.62 11.72 139.945 11.3 140.375 11.02C140.815 10.74 141.36 10.6 142.01 10.6H142.1C143.07 10.6 143.805 10.915 144.305 11.545C144.805 12.165 145.055 13.095 145.055 14.335V19H142.97V14.155C142.97 13.655 142.825 13.25 142.535 12.94C142.255 12.63 141.865 12.475 141.365 12.475C140.855 12.475 140.44 12.635 140.12 12.955C139.81 13.265 139.655 13.685 139.655 14.215V19H137.57ZM150.837 19.105C150.087 19.105 149.467 19.01 148.977 18.82C148.497 18.62 148.137 18.29 147.897 17.83C147.657 17.36 147.537 16.73 147.537 15.94L147.552 8.56H149.502L149.487 16.075C149.487 16.475 149.592 16.785 149.802 17.005C150.022 17.215 150.332 17.32 150.732 17.32H152.007V19.105H150.837ZM146.247 12.385V10.855H152.007V12.385H146.247ZM157.628 19.285C156.908 19.285 156.273 19.17 155.723 18.94C155.173 18.71 154.708 18.4 154.328 18.01C153.948 17.61 153.658 17.16 153.458 16.66C153.268 16.16 153.173 15.64 153.173 15.1V14.785C153.173 14.225 153.273 13.695 153.473 13.195C153.683 12.685 153.978 12.235 154.358 11.845C154.748 11.445 155.218 11.135 155.768 10.915C156.318 10.685 156.938 10.57 157.628 10.57C158.318 10.57 158.938 10.685 159.488 10.915C160.038 11.135 160.503 11.445 160.883 11.845C161.273 12.235 161.568 12.685 161.768 13.195C161.968 13.695 162.068 14.225 162.068 14.785V15.1C162.068 15.64 161.968 16.16 161.768 16.66C161.578 17.16 161.293 17.61 160.913 18.01C160.533 18.4 160.068 18.71 159.518 18.94C158.968 19.17 158.338 19.285 157.628 19.285ZM157.628 17.5C158.138 17.5 158.568 17.39 158.918 17.17C159.268 16.94 159.533 16.635 159.713 16.255C159.893 15.865 159.983 15.425 159.983 14.935C159.983 14.435 159.888 13.995 159.698 13.615C159.518 13.225 159.248 12.92 158.888 12.7C158.538 12.47 158.118 12.355 157.628 12.355C157.138 12.355 156.713 12.47 156.353 12.7C156.003 12.92 155.733 13.225 155.543 13.615C155.353 13.995 155.258 14.435 155.258 14.935C155.258 15.425 155.348 15.865 155.528 16.255C155.718 16.635 155.988 16.94 156.338 17.17C156.688 17.39 157.118 17.5 157.628 17.5Z" fill="white"></path><path d="M93.5 34L88.7369 25.75L98.2631 25.75L93.5 34Z" fill="#68B426"></path></svg>