<svg xmlns="http://www.w3.org/2000/svg" width="189" height="34" viewBox="0 0 189 34" fill="none"><rect width="189" height="27" rx="13.5" fill="#68B426"></rect><path d="M26.2904 19V16.9C26.2904 16.44 26.3604 16.04 26.5004 15.7C26.6504 15.36 26.8904 15.06 27.2204 14.8C27.5604 14.53 28.0054 14.275 28.5554 14.035L30.4154 13.21C30.8754 13 31.2254 12.745 31.4654 12.445C31.7154 12.135 31.8404 11.74 31.8404 11.26C31.8404 10.73 31.6804 10.31 31.3604 10C31.0504 9.68 30.6054 9.52 30.0254 9.52C29.4454 9.52 28.9954 9.68 28.6754 10C28.3654 10.32 28.2104 10.765 28.2104 11.335H26.1554C26.1554 10.655 26.3004 10.045 26.5904 9.505C26.8804 8.955 27.3104 8.525 27.8804 8.215C28.4504 7.895 29.1654 7.735 30.0254 7.735C30.8854 7.735 31.6004 7.89 32.1704 8.2C32.7404 8.51 33.1704 8.925 33.4604 9.445C33.7504 9.955 33.8954 10.525 33.8954 11.155V11.35C33.8954 12.17 33.6654 12.855 33.2054 13.405C32.7454 13.945 32.0704 14.415 31.1804 14.815L29.3204 15.64C28.9704 15.79 28.7254 15.95 28.5854 16.12C28.4454 16.28 28.3754 16.5 28.3754 16.78V17.74L27.8654 17.185H33.9404V19H26.2904ZM40.4047 19.285C39.5447 19.285 38.8147 19.145 38.2147 18.865C37.6147 18.575 37.1247 18.185 36.7447 17.695C36.3647 17.195 36.0847 16.625 35.9047 15.985C35.7347 15.335 35.6497 14.655 35.6497 13.945V13.105C35.6497 12.095 35.8197 11.185 36.1597 10.375C36.4997 9.565 37.0197 8.925 37.7197 8.455C38.4197 7.975 39.3147 7.735 40.4047 7.735C41.4847 7.735 42.3747 7.975 43.0747 8.455C43.7747 8.925 44.2897 9.565 44.6197 10.375C44.9597 11.185 45.1297 12.095 45.1297 13.105V13.945C45.1297 14.655 45.0397 15.335 44.8597 15.985C44.6897 16.625 44.4147 17.195 44.0347 17.695C43.6647 18.185 43.1797 18.575 42.5797 18.865C41.9797 19.145 41.2547 19.285 40.4047 19.285ZM40.4047 17.335C41.2947 17.335 41.9497 17.03 42.3697 16.42C42.7897 15.8 42.9997 14.84 42.9997 13.54C42.9997 12.16 42.7847 11.175 42.3547 10.585C41.9247 9.985 41.2747 9.685 40.4047 9.685C39.5247 9.685 38.8647 9.985 38.4247 10.585C37.9947 11.175 37.7797 12.15 37.7797 13.51C37.7797 14.82 37.9947 15.785 38.4247 16.405C38.8547 17.025 39.5147 17.335 40.4047 17.335ZM53.0299 19L57.0649 8.05H58.7899L54.7549 19H53.0299ZM52.2499 14.02C51.6699 14.02 51.1899 13.89 50.8099 13.63C50.4299 13.36 50.1449 13.005 49.9549 12.565C49.7749 12.125 49.6849 11.645 49.6849 11.125V10.735C49.6849 10.165 49.7799 9.665 49.9699 9.235C50.1599 8.795 50.4449 8.455 50.8249 8.215C51.2149 7.965 51.6899 7.84 52.2499 7.84C52.8299 7.84 53.3099 7.965 53.6899 8.215C54.0699 8.455 54.3549 8.795 54.5449 9.235C54.7349 9.665 54.8299 10.165 54.8299 10.735V11.125C54.8299 11.645 54.7349 12.125 54.5449 12.565C54.3649 13.005 54.0849 13.36 53.7049 13.63C53.3349 13.89 52.8499 14.02 52.2499 14.02ZM52.2499 12.625C52.6099 12.625 52.8749 12.495 53.0449 12.235C53.2249 11.965 53.3149 11.535 53.3149 10.945C53.3149 10.305 53.2249 9.86 53.0449 9.61C52.8649 9.36 52.5999 9.235 52.2499 9.235C51.8999 9.235 51.6349 9.36 51.4549 9.61C51.2849 9.86 51.1999 10.3 51.1999 10.93C51.1999 11.52 51.2849 11.95 51.4549 12.22C51.6349 12.49 51.8999 12.625 52.2499 12.625ZM59.4949 19.225C58.9149 19.225 58.4349 19.095 58.0549 18.835C57.6749 18.565 57.3899 18.21 57.1999 17.77C57.0199 17.33 56.9299 16.85 56.9299 16.33V15.94C56.9299 15.37 57.0249 14.87 57.2149 14.44C57.4049 14 57.6899 13.66 58.0699 13.42C58.4599 13.17 58.9349 13.045 59.4949 13.045C60.0749 13.045 60.5549 13.17 60.9349 13.42C61.3149 13.66 61.5999 14 61.7899 14.44C61.9799 14.87 62.0749 15.37 62.0749 15.94V16.33C62.0749 16.85 61.9799 17.33 61.7899 17.77C61.6099 18.21 61.3299 18.565 60.9499 18.835C60.5799 19.095 60.0949 19.225 59.4949 19.225ZM59.4949 17.83C59.8549 17.83 60.1199 17.7 60.2899 17.44C60.4699 17.17 60.5599 16.74 60.5599 16.15C60.5599 15.51 60.4699 15.065 60.2899 14.815C60.1099 14.565 59.8449 14.44 59.4949 14.44C59.1449 14.44 58.8799 14.565 58.6999 14.815C58.5299 15.065 58.4449 15.505 58.4449 16.135C58.4449 16.725 58.5299 17.155 58.6999 17.425C58.8799 17.695 59.1449 17.83 59.4949 17.83ZM70.2465 19.27C69.6765 19.27 69.1515 19.165 68.6715 18.955C68.1915 18.745 67.7765 18.45 67.4265 18.07C67.0765 17.69 66.8065 17.25 66.6165 16.75C66.4265 16.24 66.3315 15.69 66.3315 15.1V14.785C66.3315 14.205 66.4215 13.66 66.6015 13.15C66.7915 12.64 67.0515 12.195 67.3815 11.815C67.7215 11.435 68.1265 11.14 68.5965 10.93C69.0765 10.71 69.6065 10.6 70.1865 10.6C70.8265 10.6 71.3865 10.74 71.8665 11.02C72.3565 11.29 72.7465 11.7 73.0365 12.25C73.3265 12.8 73.4865 13.49 73.5165 14.32L72.9015 13.6V8.05H74.9865V19H73.3365V15.535H73.6965C73.6665 16.365 73.4965 17.06 73.1865 17.62C72.8765 18.17 72.4665 18.585 71.9565 18.865C71.4565 19.135 70.8865 19.27 70.2465 19.27ZM70.7115 17.515C71.1215 17.515 71.4965 17.425 71.8365 17.245C72.1765 17.055 72.4465 16.785 72.6465 16.435C72.8565 16.075 72.9615 15.655 72.9615 15.175V14.575C72.9615 14.095 72.8565 13.695 72.6465 13.375C72.4365 13.045 72.1615 12.795 71.8215 12.625C71.4815 12.445 71.1115 12.355 70.7115 12.355C70.2615 12.355 69.8615 12.465 69.5115 12.685C69.1715 12.895 68.9015 13.195 68.7015 13.585C68.5115 13.975 68.4165 14.43 68.4165 14.95C68.4165 15.47 68.5165 15.925 68.7165 16.315C68.9165 16.695 69.1865 16.99 69.5265 17.2C69.8765 17.41 70.2715 17.515 70.7115 17.515ZM81.0048 19.285C80.3048 19.285 79.6898 19.165 79.1598 18.925C78.6398 18.685 78.2048 18.365 77.8548 17.965C77.5148 17.555 77.2548 17.1 77.0748 16.6C76.9048 16.1 76.8198 15.59 76.8198 15.07V14.785C76.8198 14.245 76.9048 13.725 77.0748 13.225C77.2548 12.715 77.5148 12.265 77.8548 11.875C78.2048 11.475 78.6348 11.16 79.1448 10.93C79.6548 10.69 80.2448 10.57 80.9148 10.57C81.7948 10.57 82.5298 10.765 83.1198 11.155C83.7198 11.535 84.1698 12.04 84.4698 12.67C84.7698 13.29 84.9198 13.96 84.9198 14.68V15.43H77.7048V14.155H83.6148L82.9698 14.785C82.9698 14.265 82.8948 13.82 82.7448 13.45C82.5948 13.08 82.3648 12.795 82.0548 12.595C81.7548 12.395 81.3748 12.295 80.9148 12.295C80.4548 12.295 80.0648 12.4 79.7448 12.61C79.4248 12.82 79.1798 13.125 79.0098 13.525C78.8498 13.915 78.7698 14.385 78.7698 14.935C78.7698 15.445 78.8498 15.9 79.0098 16.3C79.1698 16.69 79.4148 17 79.7448 17.23C80.0748 17.45 80.4948 17.56 81.0048 17.56C81.5148 17.56 81.9298 17.46 82.2498 17.26C82.5698 17.05 82.7748 16.795 82.8648 16.495H84.7848C84.6648 17.055 84.4348 17.545 84.0948 17.965C83.7548 18.385 83.3198 18.71 82.7898 18.94C82.2698 19.17 81.6748 19.285 81.0048 19.285ZM91.8939 19.06V17.08H94.1589C94.7289 17.08 95.2339 16.995 95.6739 16.825C96.1239 16.645 96.5039 16.395 96.8139 16.075C97.1239 15.755 97.3589 15.38 97.5189 14.95C97.6889 14.51 97.7739 14.025 97.7739 13.495C97.7739 12.945 97.6889 12.455 97.5189 12.025C97.3589 11.585 97.1239 11.21 96.8139 10.9C96.5039 10.59 96.1239 10.355 95.6739 10.195C95.2339 10.035 94.7289 9.955 94.1589 9.955H91.8939V7.975H94.0239C95.0139 7.975 95.8789 8.12 96.6189 8.41C97.3589 8.7 97.9739 9.1 98.4639 9.61C98.9539 10.11 99.3189 10.685 99.5589 11.335C99.8089 11.975 99.9339 12.64 99.9339 13.33V13.66C99.9339 14.32 99.8089 14.97 99.5589 15.61C99.3189 16.25 98.9539 16.83 98.4639 17.35C97.9739 17.87 97.3589 18.285 96.6189 18.595C95.8789 18.905 95.0139 19.06 94.0239 19.06H91.8939ZM90.0639 19.06V7.975H92.1939V19.06H90.0639ZM105.321 19.285C104.621 19.285 104.006 19.165 103.476 18.925C102.956 18.685 102.521 18.365 102.171 17.965C101.831 17.555 101.571 17.1 101.391 16.6C101.221 16.1 101.136 15.59 101.136 15.07V14.785C101.136 14.245 101.221 13.725 101.391 13.225C101.571 12.715 101.831 12.265 102.171 11.875C102.521 11.475 102.951 11.16 103.461 10.93C103.971 10.69 104.561 10.57 105.231 10.57C106.111 10.57 106.846 10.765 107.436 11.155C108.036 11.535 108.486 12.04 108.786 12.67C109.086 13.29 109.236 13.96 109.236 14.68V15.43H102.021V14.155H107.931L107.286 14.785C107.286 14.265 107.211 13.82 107.061 13.45C106.911 13.08 106.681 12.795 106.371 12.595C106.071 12.395 105.691 12.295 105.231 12.295C104.771 12.295 104.381 12.4 104.061 12.61C103.741 12.82 103.496 13.125 103.326 13.525C103.166 13.915 103.086 14.385 103.086 14.935C103.086 15.445 103.166 15.9 103.326 16.3C103.486 16.69 103.731 17 104.061 17.23C104.391 17.45 104.811 17.56 105.321 17.56C105.831 17.56 106.246 17.46 106.566 17.26C106.886 17.05 107.091 16.795 107.181 16.495H109.101C108.981 17.055 108.751 17.545 108.411 17.965C108.071 18.385 107.636 18.71 107.106 18.94C106.586 19.17 105.991 19.285 105.321 19.285ZM113.933 19.255C112.813 19.255 111.933 19.02 111.293 18.55C110.663 18.07 110.333 17.41 110.303 16.57H112.178C112.208 16.85 112.363 17.105 112.643 17.335C112.923 17.565 113.363 17.68 113.963 17.68C114.463 17.68 114.858 17.59 115.148 17.41C115.448 17.23 115.598 16.985 115.598 16.675C115.598 16.405 115.483 16.19 115.253 16.03C115.033 15.87 114.653 15.765 114.113 15.715L113.393 15.64C112.483 15.54 111.783 15.28 111.293 14.86C110.803 14.44 110.558 13.88 110.558 13.18C110.558 12.62 110.698 12.15 110.978 11.77C111.258 11.39 111.643 11.105 112.133 10.915C112.633 10.715 113.203 10.615 113.843 10.615C114.843 10.615 115.653 10.835 116.273 11.275C116.893 11.715 117.218 12.36 117.248 13.21H115.373C115.353 12.93 115.213 12.69 114.953 12.49C114.693 12.29 114.318 12.19 113.828 12.19C113.388 12.19 113.048 12.275 112.808 12.445C112.568 12.615 112.448 12.835 112.448 13.105C112.448 13.365 112.543 13.565 112.733 13.705C112.933 13.845 113.253 13.94 113.693 13.99L114.413 14.065C115.373 14.165 116.123 14.43 116.663 14.86C117.213 15.29 117.488 15.87 117.488 16.6C117.488 17.14 117.338 17.61 117.038 18.01C116.748 18.4 116.338 18.705 115.808 18.925C115.278 19.145 114.653 19.255 113.933 19.255ZM122.825 19.285C122.115 19.285 121.5 19.165 120.98 18.925C120.47 18.685 120.04 18.365 119.69 17.965C119.35 17.565 119.095 17.115 118.925 16.615C118.755 16.115 118.67 15.605 118.67 15.085V14.8C118.67 14.25 118.755 13.725 118.925 13.225C119.105 12.715 119.37 12.265 119.72 11.875C120.07 11.475 120.5 11.16 121.01 10.93C121.53 10.69 122.13 10.57 122.81 10.57C123.52 10.57 124.155 10.71 124.715 10.99C125.275 11.26 125.72 11.64 126.05 12.13C126.39 12.62 126.58 13.19 126.62 13.84H124.595C124.545 13.42 124.365 13.07 124.055 12.79C123.755 12.51 123.34 12.37 122.81 12.37C122.35 12.37 121.965 12.48 121.655 12.7C121.355 12.92 121.13 13.225 120.98 13.615C120.83 13.995 120.755 14.435 120.755 14.935C120.755 15.415 120.825 15.85 120.965 16.24C121.115 16.63 121.34 16.935 121.64 17.155C121.95 17.375 122.345 17.485 122.825 17.485C123.185 17.485 123.495 17.42 123.755 17.29C124.015 17.16 124.22 16.98 124.37 16.75C124.53 16.52 124.63 16.26 124.67 15.97H126.695C126.655 16.63 126.46 17.21 126.11 17.71C125.77 18.2 125.315 18.585 124.745 18.865C124.185 19.145 123.545 19.285 122.825 19.285ZM132.281 19.285C131.561 19.285 130.926 19.17 130.376 18.94C129.826 18.71 129.361 18.4 128.981 18.01C128.601 17.61 128.311 17.16 128.111 16.66C127.921 16.16 127.826 15.64 127.826 15.1V14.785C127.826 14.225 127.926 13.695 128.126 13.195C128.336 12.685 128.631 12.235 129.011 11.845C129.401 11.445 129.871 11.135 130.421 10.915C130.971 10.685 131.591 10.57 132.281 10.57C132.971 10.57 133.591 10.685 134.141 10.915C134.691 11.135 135.156 11.445 135.536 11.845C135.926 12.235 136.221 12.685 136.421 13.195C136.621 13.695 136.721 14.225 136.721 14.785V15.1C136.721 15.64 136.621 16.16 136.421 16.66C136.231 17.16 135.946 17.61 135.566 18.01C135.186 18.4 134.721 18.71 134.171 18.94C133.621 19.17 132.991 19.285 132.281 19.285ZM132.281 17.5C132.791 17.5 133.221 17.39 133.571 17.17C133.921 16.94 134.186 16.635 134.366 16.255C134.546 15.865 134.636 15.425 134.636 14.935C134.636 14.435 134.541 13.995 134.351 13.615C134.171 13.225 133.901 12.92 133.541 12.7C133.191 12.47 132.771 12.355 132.281 12.355C131.791 12.355 131.366 12.47 131.006 12.7C130.656 12.92 130.386 13.225 130.196 13.615C130.006 13.995 129.911 14.435 129.911 14.935C129.911 15.425 130.001 15.865 130.181 16.255C130.371 16.635 130.641 16.94 130.991 17.17C131.341 17.39 131.771 17.5 132.281 17.5ZM138.546 19V10.855H140.196V14.35H140.046C140.046 13.52 140.156 12.83 140.376 12.28C140.596 11.72 140.921 11.3 141.351 11.02C141.791 10.74 142.336 10.6 142.986 10.6H143.076C144.046 10.6 144.781 10.915 145.281 11.545C145.781 12.165 146.031 13.095 146.031 14.335V19H143.946V14.155C143.946 13.655 143.801 13.25 143.511 12.94C143.231 12.63 142.841 12.475 142.341 12.475C141.831 12.475 141.416 12.635 141.096 12.955C140.786 13.265 140.631 13.685 140.631 14.215V19H138.546ZM151.813 19.105C151.063 19.105 150.443 19.01 149.953 18.82C149.473 18.62 149.113 18.29 148.873 17.83C148.633 17.36 148.513 16.73 148.513 15.94L148.528 8.56H150.478L150.463 16.075C150.463 16.475 150.568 16.785 150.778 17.005C150.998 17.215 151.308 17.32 151.708 17.32H152.983V19.105H151.813ZM147.223 12.385V10.855H152.983V12.385H147.223ZM158.604 19.285C157.884 19.285 157.249 19.17 156.699 18.94C156.149 18.71 155.684 18.4 155.304 18.01C154.924 17.61 154.634 17.16 154.434 16.66C154.244 16.16 154.149 15.64 154.149 15.1V14.785C154.149 14.225 154.249 13.695 154.449 13.195C154.659 12.685 154.954 12.235 155.334 11.845C155.724 11.445 156.194 11.135 156.744 10.915C157.294 10.685 157.914 10.57 158.604 10.57C159.294 10.57 159.914 10.685 160.464 10.915C161.014 11.135 161.479 11.445 161.859 11.845C162.249 12.235 162.544 12.685 162.744 13.195C162.944 13.695 163.044 14.225 163.044 14.785V15.1C163.044 15.64 162.944 16.16 162.744 16.66C162.554 17.16 162.269 17.61 161.889 18.01C161.509 18.4 161.044 18.71 160.494 18.94C159.944 19.17 159.314 19.285 158.604 19.285ZM158.604 17.5C159.114 17.5 159.544 17.39 159.894 17.17C160.244 16.94 160.509 16.635 160.689 16.255C160.869 15.865 160.959 15.425 160.959 14.935C160.959 14.435 160.864 13.995 160.674 13.615C160.494 13.225 160.224 12.92 159.864 12.7C159.514 12.47 159.094 12.355 158.604 12.355C158.114 12.355 157.689 12.47 157.329 12.7C156.979 12.92 156.709 13.225 156.519 13.615C156.329 13.995 156.234 14.435 156.234 14.935C156.234 15.425 156.324 15.865 156.504 16.255C156.694 16.635 156.964 16.94 157.314 17.17C157.664 17.39 158.094 17.5 158.604 17.5Z" fill="white"></path><path d="M93.5 34L88.7369 25.75L98.2631 25.75L93.5 34Z" fill="#68B426"></path></svg>