<svg xmlns="http://www.w3.org/2000/svg" width="188" height="34" viewBox="0 0 188 34" fill="none"><rect width="188" height="27" rx="13.5" fill="#68B426"></rect><path d="M30.6681 19.315C29.8581 19.315 29.1681 19.18 28.5981 18.91C28.0381 18.63 27.5831 18.25 27.2331 17.77C26.8831 17.29 26.6281 16.735 26.4681 16.105C26.3081 15.465 26.2281 14.79 26.2281 14.08V13.42C26.2281 11.63 26.6781 10.275 27.5781 9.355C28.4881 8.425 29.8181 7.96 31.5681 7.96C31.9481 7.96 32.3031 7.97 32.6331 7.99C32.9631 8.01 33.2931 8.04 33.6231 8.08V9.865C33.2931 9.825 32.9531 9.795 32.6031 9.775C32.2631 9.755 31.8931 9.745 31.4931 9.745C30.6531 9.745 29.9931 9.89 29.5131 10.18C29.0331 10.47 28.6881 10.895 28.4781 11.455C28.2781 12.015 28.1781 12.71 28.1781 13.54V14.515L27.6981 15.205C27.7081 14.435 27.8581 13.8 28.1481 13.3C28.4481 12.79 28.8581 12.41 29.3781 12.16C29.8981 11.9 30.4931 11.77 31.1631 11.77C31.9431 11.77 32.6081 11.925 33.1581 12.235C33.7081 12.545 34.1281 12.975 34.4181 13.525C34.7181 14.075 34.8681 14.715 34.8681 15.445C34.8681 16.205 34.6981 16.88 34.3581 17.47C34.0181 18.05 33.5331 18.505 32.9031 18.835C32.2831 19.155 31.5381 19.315 30.6681 19.315ZM30.6231 17.53C31.0931 17.53 31.4931 17.445 31.8231 17.275C32.1531 17.095 32.4031 16.85 32.5731 16.54C32.7431 16.23 32.8281 15.875 32.8281 15.475C32.8281 15.065 32.7431 14.705 32.5731 14.395C32.4131 14.085 32.1731 13.845 31.8531 13.675C31.5331 13.505 31.1481 13.42 30.6981 13.42C30.2681 13.42 29.8731 13.5 29.5131 13.66C29.1631 13.81 28.8831 14.04 28.6731 14.35C28.4731 14.65 28.3731 15.025 28.3731 15.475C28.3731 15.865 28.4531 16.215 28.6131 16.525C28.7831 16.835 29.0331 17.08 29.3631 17.26C29.7031 17.44 30.1231 17.53 30.6231 17.53ZM40.3391 19.285C39.4791 19.285 38.7391 19.115 38.1191 18.775C37.5091 18.435 37.0391 17.985 36.7091 17.425C36.3891 16.855 36.2291 16.235 36.2291 15.565H38.2841C38.2841 15.945 38.3691 16.28 38.5391 16.57C38.7191 16.86 38.9641 17.09 39.2741 17.26C39.5841 17.42 39.9441 17.5 40.3541 17.5C40.7841 17.5 41.1541 17.41 41.4641 17.23C41.7741 17.05 42.0091 16.805 42.1691 16.495C42.3391 16.185 42.4241 15.83 42.4241 15.43C42.4241 15.04 42.3391 14.69 42.1691 14.38C42.0091 14.06 41.7741 13.81 41.4641 13.63C41.1641 13.44 40.7991 13.345 40.3691 13.345C40.0091 13.345 39.6691 13.415 39.3491 13.555C39.0291 13.695 38.7791 13.88 38.5991 14.11H36.6341L37.1891 8.05H43.5341V9.865H38.1191L38.8691 9.28L38.5091 13.06L37.9991 12.91C38.2891 12.58 38.6441 12.305 39.0641 12.085C39.4841 11.865 40.0141 11.755 40.6541 11.755C41.4641 11.755 42.1541 11.92 42.7241 12.25C43.2941 12.58 43.7291 13.02 44.0291 13.57C44.3291 14.11 44.4791 14.7 44.4791 15.34V15.535C44.4791 16.185 44.3191 16.795 43.9991 17.365C43.6791 17.935 43.2091 18.4 42.5891 18.76C41.9791 19.11 41.2291 19.285 40.3391 19.285ZM52.0172 19L56.0522 8.05H57.7772L53.7422 19H52.0172ZM51.2372 14.02C50.6572 14.02 50.1772 13.89 49.7972 13.63C49.4172 13.36 49.1322 13.005 48.9422 12.565C48.7622 12.125 48.6722 11.645 48.6722 11.125V10.735C48.6722 10.165 48.7672 9.665 48.9572 9.235C49.1472 8.795 49.4322 8.455 49.8122 8.215C50.2022 7.965 50.6772 7.84 51.2372 7.84C51.8172 7.84 52.2972 7.965 52.6772 8.215C53.0572 8.455 53.3422 8.795 53.5322 9.235C53.7222 9.665 53.8172 10.165 53.8172 10.735V11.125C53.8172 11.645 53.7222 12.125 53.5322 12.565C53.3522 13.005 53.0722 13.36 52.6922 13.63C52.3222 13.89 51.8372 14.02 51.2372 14.02ZM51.2372 12.625C51.5972 12.625 51.8622 12.495 52.0322 12.235C52.2122 11.965 52.3022 11.535 52.3022 10.945C52.3022 10.305 52.2122 9.86 52.0322 9.61C51.8522 9.36 51.5872 9.235 51.2372 9.235C50.8872 9.235 50.6222 9.36 50.4422 9.61C50.2722 9.86 50.1872 10.3 50.1872 10.93C50.1872 11.52 50.2722 11.95 50.4422 12.22C50.6222 12.49 50.8872 12.625 51.2372 12.625ZM58.4822 19.225C57.9022 19.225 57.4222 19.095 57.0422 18.835C56.6622 18.565 56.3772 18.21 56.1872 17.77C56.0072 17.33 55.9172 16.85 55.9172 16.33V15.94C55.9172 15.37 56.0122 14.87 56.2022 14.44C56.3922 14 56.6772 13.66 57.0572 13.42C57.4472 13.17 57.9222 13.045 58.4822 13.045C59.0622 13.045 59.5422 13.17 59.9222 13.42C60.3022 13.66 60.5872 14 60.7772 14.44C60.9672 14.87 61.0622 15.37 61.0622 15.94V16.33C61.0622 16.85 60.9672 17.33 60.7772 17.77C60.5972 18.21 60.3172 18.565 59.9372 18.835C59.5672 19.095 59.0822 19.225 58.4822 19.225ZM58.4822 17.83C58.8422 17.83 59.1072 17.7 59.2772 17.44C59.4572 17.17 59.5472 16.74 59.5472 16.15C59.5472 15.51 59.4572 15.065 59.2772 14.815C59.0972 14.565 58.8322 14.44 58.4822 14.44C58.1322 14.44 57.8672 14.565 57.6872 14.815C57.5172 15.065 57.4322 15.505 57.4322 16.135C57.4322 16.725 57.5172 17.155 57.6872 17.425C57.8672 17.695 58.1322 17.83 58.4822 17.83ZM69.2338 19.27C68.6638 19.27 68.1388 19.165 67.6588 18.955C67.1788 18.745 66.7638 18.45 66.4138 18.07C66.0638 17.69 65.7938 17.25 65.6038 16.75C65.4138 16.24 65.3188 15.69 65.3188 15.1V14.785C65.3188 14.205 65.4088 13.66 65.5888 13.15C65.7788 12.64 66.0388 12.195 66.3688 11.815C66.7088 11.435 67.1138 11.14 67.5838 10.93C68.0638 10.71 68.5938 10.6 69.1738 10.6C69.8138 10.6 70.3738 10.74 70.8538 11.02C71.3438 11.29 71.7338 11.7 72.0238 12.25C72.3138 12.8 72.4738 13.49 72.5038 14.32L71.8888 13.6V8.05H73.9738V19H72.3238V15.535H72.6838C72.6538 16.365 72.4838 17.06 72.1738 17.62C71.8638 18.17 71.4538 18.585 70.9438 18.865C70.4438 19.135 69.8738 19.27 69.2338 19.27ZM69.6988 17.515C70.1088 17.515 70.4838 17.425 70.8238 17.245C71.1638 17.055 71.4338 16.785 71.6338 16.435C71.8438 16.075 71.9488 15.655 71.9488 15.175V14.575C71.9488 14.095 71.8438 13.695 71.6338 13.375C71.4238 13.045 71.1488 12.795 70.8088 12.625C70.4688 12.445 70.0988 12.355 69.6988 12.355C69.2488 12.355 68.8488 12.465 68.4988 12.685C68.1588 12.895 67.8888 13.195 67.6888 13.585C67.4988 13.975 67.4038 14.43 67.4038 14.95C67.4038 15.47 67.5038 15.925 67.7038 16.315C67.9038 16.695 68.1738 16.99 68.5138 17.2C68.8638 17.41 69.2588 17.515 69.6988 17.515ZM79.9921 19.285C79.2921 19.285 78.6771 19.165 78.1471 18.925C77.6271 18.685 77.1921 18.365 76.8421 17.965C76.5021 17.555 76.2421 17.1 76.0621 16.6C75.8921 16.1 75.8071 15.59 75.8071 15.07V14.785C75.8071 14.245 75.8921 13.725 76.0621 13.225C76.2421 12.715 76.5021 12.265 76.8421 11.875C77.1921 11.475 77.6221 11.16 78.1321 10.93C78.6421 10.69 79.2321 10.57 79.9021 10.57C80.7821 10.57 81.5171 10.765 82.1071 11.155C82.7071 11.535 83.1571 12.04 83.4571 12.67C83.7571 13.29 83.9071 13.96 83.9071 14.68V15.43H76.6921V14.155H82.6021L81.9571 14.785C81.9571 14.265 81.8821 13.82 81.7321 13.45C81.5821 13.08 81.3521 12.795 81.0421 12.595C80.7421 12.395 80.3621 12.295 79.9021 12.295C79.4421 12.295 79.0521 12.4 78.7321 12.61C78.4121 12.82 78.1671 13.125 77.9971 13.525C77.8371 13.915 77.7571 14.385 77.7571 14.935C77.7571 15.445 77.8371 15.9 77.9971 16.3C78.1571 16.69 78.4021 17 78.7321 17.23C79.0621 17.45 79.4821 17.56 79.9921 17.56C80.5021 17.56 80.9171 17.46 81.2371 17.26C81.5571 17.05 81.7621 16.795 81.8521 16.495H83.7721C83.6521 17.055 83.4221 17.545 83.0821 17.965C82.7421 18.385 82.3071 18.71 81.7771 18.94C81.2571 19.17 80.6621 19.285 79.9921 19.285ZM90.8812 19.06V17.08H93.1462C93.7162 17.08 94.2212 16.995 94.6612 16.825C95.1112 16.645 95.4912 16.395 95.8012 16.075C96.1112 15.755 96.3462 15.38 96.5062 14.95C96.6762 14.51 96.7612 14.025 96.7612 13.495C96.7612 12.945 96.6762 12.455 96.5062 12.025C96.3462 11.585 96.1112 11.21 95.8012 10.9C95.4912 10.59 95.1112 10.355 94.6612 10.195C94.2212 10.035 93.7162 9.955 93.1462 9.955H90.8812V7.975H93.0112C94.0012 7.975 94.8662 8.12 95.6062 8.41C96.3462 8.7 96.9612 9.1 97.4512 9.61C97.9412 10.11 98.3062 10.685 98.5462 11.335C98.7962 11.975 98.9212 12.64 98.9212 13.33V13.66C98.9212 14.32 98.7962 14.97 98.5462 15.61C98.3062 16.25 97.9412 16.83 97.4512 17.35C96.9612 17.87 96.3462 18.285 95.6062 18.595C94.8662 18.905 94.0012 19.06 93.0112 19.06H90.8812ZM89.0512 19.06V7.975H91.1812V19.06H89.0512ZM104.309 19.285C103.609 19.285 102.994 19.165 102.464 18.925C101.944 18.685 101.509 18.365 101.159 17.965C100.819 17.555 100.559 17.1 100.379 16.6C100.209 16.1 100.124 15.59 100.124 15.07V14.785C100.124 14.245 100.209 13.725 100.379 13.225C100.559 12.715 100.819 12.265 101.159 11.875C101.509 11.475 101.939 11.16 102.449 10.93C102.959 10.69 103.549 10.57 104.219 10.57C105.099 10.57 105.834 10.765 106.424 11.155C107.024 11.535 107.474 12.04 107.774 12.67C108.074 13.29 108.224 13.96 108.224 14.68V15.43H101.009V14.155H106.919L106.274 14.785C106.274 14.265 106.199 13.82 106.049 13.45C105.899 13.08 105.669 12.795 105.359 12.595C105.059 12.395 104.679 12.295 104.219 12.295C103.759 12.295 103.369 12.4 103.049 12.61C102.729 12.82 102.484 13.125 102.314 13.525C102.154 13.915 102.074 14.385 102.074 14.935C102.074 15.445 102.154 15.9 102.314 16.3C102.474 16.69 102.719 17 103.049 17.23C103.379 17.45 103.799 17.56 104.309 17.56C104.819 17.56 105.234 17.46 105.554 17.26C105.874 17.05 106.079 16.795 106.169 16.495H108.089C107.969 17.055 107.739 17.545 107.399 17.965C107.059 18.385 106.624 18.71 106.094 18.94C105.574 19.17 104.979 19.285 104.309 19.285ZM112.92 19.255C111.8 19.255 110.92 19.02 110.28 18.55C109.65 18.07 109.32 17.41 109.29 16.57H111.165C111.195 16.85 111.35 17.105 111.63 17.335C111.91 17.565 112.35 17.68 112.95 17.68C113.45 17.68 113.845 17.59 114.135 17.41C114.435 17.23 114.585 16.985 114.585 16.675C114.585 16.405 114.47 16.19 114.24 16.03C114.02 15.87 113.64 15.765 113.1 15.715L112.38 15.64C111.47 15.54 110.77 15.28 110.28 14.86C109.79 14.44 109.545 13.88 109.545 13.18C109.545 12.62 109.685 12.15 109.965 11.77C110.245 11.39 110.63 11.105 111.12 10.915C111.62 10.715 112.19 10.615 112.83 10.615C113.83 10.615 114.64 10.835 115.26 11.275C115.88 11.715 116.205 12.36 116.235 13.21H114.36C114.34 12.93 114.2 12.69 113.94 12.49C113.68 12.29 113.305 12.19 112.815 12.19C112.375 12.19 112.035 12.275 111.795 12.445C111.555 12.615 111.435 12.835 111.435 13.105C111.435 13.365 111.53 13.565 111.72 13.705C111.92 13.845 112.24 13.94 112.68 13.99L113.4 14.065C114.36 14.165 115.11 14.43 115.65 14.86C116.2 15.29 116.475 15.87 116.475 16.6C116.475 17.14 116.325 17.61 116.025 18.01C115.735 18.4 115.325 18.705 114.795 18.925C114.265 19.145 113.64 19.255 112.92 19.255ZM121.813 19.285C121.103 19.285 120.488 19.165 119.968 18.925C119.458 18.685 119.028 18.365 118.678 17.965C118.338 17.565 118.083 17.115 117.913 16.615C117.743 16.115 117.658 15.605 117.658 15.085V14.8C117.658 14.25 117.743 13.725 117.913 13.225C118.093 12.715 118.358 12.265 118.708 11.875C119.058 11.475 119.488 11.16 119.998 10.93C120.518 10.69 121.118 10.57 121.798 10.57C122.508 10.57 123.143 10.71 123.703 10.99C124.263 11.26 124.708 11.64 125.038 12.13C125.378 12.62 125.568 13.19 125.608 13.84H123.583C123.533 13.42 123.353 13.07 123.043 12.79C122.743 12.51 122.328 12.37 121.798 12.37C121.338 12.37 120.953 12.48 120.643 12.7C120.343 12.92 120.118 13.225 119.968 13.615C119.818 13.995 119.743 14.435 119.743 14.935C119.743 15.415 119.813 15.85 119.953 16.24C120.103 16.63 120.328 16.935 120.628 17.155C120.938 17.375 121.333 17.485 121.813 17.485C122.173 17.485 122.483 17.42 122.743 17.29C123.003 17.16 123.208 16.98 123.358 16.75C123.518 16.52 123.618 16.26 123.658 15.97H125.683C125.643 16.63 125.448 17.21 125.098 17.71C124.758 18.2 124.303 18.585 123.733 18.865C123.173 19.145 122.533 19.285 121.813 19.285ZM131.268 19.285C130.548 19.285 129.913 19.17 129.363 18.94C128.813 18.71 128.348 18.4 127.968 18.01C127.588 17.61 127.298 17.16 127.098 16.66C126.908 16.16 126.813 15.64 126.813 15.1V14.785C126.813 14.225 126.913 13.695 127.113 13.195C127.323 12.685 127.618 12.235 127.998 11.845C128.388 11.445 128.858 11.135 129.408 10.915C129.958 10.685 130.578 10.57 131.268 10.57C131.958 10.57 132.578 10.685 133.128 10.915C133.678 11.135 134.143 11.445 134.523 11.845C134.913 12.235 135.208 12.685 135.408 13.195C135.608 13.695 135.708 14.225 135.708 14.785V15.1C135.708 15.64 135.608 16.16 135.408 16.66C135.218 17.16 134.933 17.61 134.553 18.01C134.173 18.4 133.708 18.71 133.158 18.94C132.608 19.17 131.978 19.285 131.268 19.285ZM131.268 17.5C131.778 17.5 132.208 17.39 132.558 17.17C132.908 16.94 133.173 16.635 133.353 16.255C133.533 15.865 133.623 15.425 133.623 14.935C133.623 14.435 133.528 13.995 133.338 13.615C133.158 13.225 132.888 12.92 132.528 12.7C132.178 12.47 131.758 12.355 131.268 12.355C130.778 12.355 130.353 12.47 129.993 12.7C129.643 12.92 129.373 13.225 129.183 13.615C128.993 13.995 128.898 14.435 128.898 14.935C128.898 15.425 128.988 15.865 129.168 16.255C129.358 16.635 129.628 16.94 129.978 17.17C130.328 17.39 130.758 17.5 131.268 17.5ZM137.534 19V10.855H139.184V14.35H139.034C139.034 13.52 139.144 12.83 139.364 12.28C139.584 11.72 139.909 11.3 140.339 11.02C140.779 10.74 141.324 10.6 141.974 10.6H142.064C143.034 10.6 143.769 10.915 144.269 11.545C144.769 12.165 145.019 13.095 145.019 14.335V19H142.934V14.155C142.934 13.655 142.789 13.25 142.499 12.94C142.219 12.63 141.829 12.475 141.329 12.475C140.819 12.475 140.404 12.635 140.084 12.955C139.774 13.265 139.619 13.685 139.619 14.215V19H137.534ZM150.8 19.105C150.05 19.105 149.43 19.01 148.94 18.82C148.46 18.62 148.1 18.29 147.86 17.83C147.62 17.36 147.5 16.73 147.5 15.94L147.515 8.56H149.465L149.45 16.075C149.45 16.475 149.555 16.785 149.765 17.005C149.985 17.215 150.295 17.32 150.695 17.32H151.97V19.105H150.8ZM146.21 12.385V10.855H151.97V12.385H146.21ZM157.591 19.285C156.871 19.285 156.236 19.17 155.686 18.94C155.136 18.71 154.671 18.4 154.291 18.01C153.911 17.61 153.621 17.16 153.421 16.66C153.231 16.16 153.136 15.64 153.136 15.1V14.785C153.136 14.225 153.236 13.695 153.436 13.195C153.646 12.685 153.941 12.235 154.321 11.845C154.711 11.445 155.181 11.135 155.731 10.915C156.281 10.685 156.901 10.57 157.591 10.57C158.281 10.57 158.901 10.685 159.451 10.915C160.001 11.135 160.466 11.445 160.846 11.845C161.236 12.235 161.531 12.685 161.731 13.195C161.931 13.695 162.031 14.225 162.031 14.785V15.1C162.031 15.64 161.931 16.16 161.731 16.66C161.541 17.16 161.256 17.61 160.876 18.01C160.496 18.4 160.031 18.71 159.481 18.94C158.931 19.17 158.301 19.285 157.591 19.285ZM157.591 17.5C158.101 17.5 158.531 17.39 158.881 17.17C159.231 16.94 159.496 16.635 159.676 16.255C159.856 15.865 159.946 15.425 159.946 14.935C159.946 14.435 159.851 13.995 159.661 13.615C159.481 13.225 159.211 12.92 158.851 12.7C158.501 12.47 158.081 12.355 157.591 12.355C157.101 12.355 156.676 12.47 156.316 12.7C155.966 12.92 155.696 13.225 155.506 13.615C155.316 13.995 155.221 14.435 155.221 14.935C155.221 15.425 155.311 15.865 155.491 16.255C155.681 16.635 155.951 16.94 156.301 17.17C156.651 17.39 157.081 17.5 157.591 17.5Z" fill="white"></path><path d="M93.5 34L88.7369 25.75L98.2631 25.75L93.5 34Z" fill="#68B426"></path></svg>